<svg width="40" height="30" viewBox="0 0 40 30" fill="none" xmlns="http://www.w3.org/2000/svg">
<path d="M36.633 17.5029L39.9121 5.65982C40.1488 4.80473 39.357 3.99046 38.2888 3.99046H11.0435L10.4077 1.43907C10.2492 0.803134 9.56751 0.346436 8.77668 0.346436H1.66476C0.745326 0.346436 0 0.958233 0 1.71294V2.62395C0 3.37866 0.745326 3.99046 1.66476 3.99046H6.51219L11.3849 23.5449C10.2192 24.0952 9.43363 25.127 9.43363 26.3101C9.43363 28.0711 11.1728 29.4986 13.3181 29.4986C15.4634 29.4986 17.2025 28.0711 17.2025 26.3101C17.2025 25.4176 16.7553 24.6114 16.0355 24.0326H30.5777C29.8579 24.6114 29.4107 25.4176 29.4107 26.3101C29.4107 28.0711 31.1499 29.4986 33.2952 29.4986C35.4405 29.4986 37.1796 28.0711 37.1796 26.3101C37.1796 25.0477 36.2856 23.9567 34.9891 23.4401L35.3718 22.0579C35.6086 21.2028 34.8168 20.3886 33.7485 20.3886H15.1297L14.6757 18.5665H35.0097C35.787 18.5665 36.4608 18.125 36.633 17.5029Z" fill="black"/>
</svg>
