<svg width="74" height="31" viewBox="0 0 74 31" fill="none" xmlns="http://www.w3.org/2000/svg">
<path d="M17.5326 13.6712C17.1292 12.5689 16.6335 10.6467 16.6335 10.6467H16.5759C16.5759 10.6467 16.0802 12.5689 15.6768 13.6712L14.3973 17.0875H18.7891L17.5326 13.6712ZM71.0065 0.898926H38.7308V30.0511H71.0065C72.5396 30.0511 73.773 29.0763 73.773 27.8647V3.08534C73.773 1.8737 72.5396 0.898926 71.0065 0.898926ZM68.24 11.831C68.24 12.4323 67.6175 12.9242 66.8568 12.9242H65.5427C64.7473 15.0742 63.0413 17.2424 60.6206 19.2921C61.5889 19.8752 62.5918 20.4309 63.6292 20.9319C64.2632 21.2417 64.4707 21.8885 64.1018 22.4078L63.1912 23.6741C62.7992 24.2116 61.9347 24.3846 61.2661 24.0658C59.8137 23.3552 58.442 22.5991 57.1856 21.7974C55.9291 22.59 54.5689 23.3552 53.105 24.0658C52.4364 24.3846 51.5719 24.2116 51.18 23.6741L50.2694 22.4078C49.9005 21.8976 50.108 21.2417 50.7535 20.9319C51.8255 20.4127 52.8284 19.8661 53.7621 19.2921C52.8514 18.5269 52.0445 17.7434 51.3414 16.9508C50.8803 16.4316 51.0878 15.7119 51.7679 15.393L52.5171 15.0377L53.3586 14.646C53.9811 14.3545 54.788 14.4911 55.2029 14.9557C55.7793 15.5934 56.4478 16.2311 57.2086 16.8597C58.7648 15.5661 59.9521 14.2269 60.6667 12.9242H47.4914C46.7306 12.9242 46.1081 12.4323 46.1081 11.831V10.3734C46.1081 9.77212 46.7306 9.28018 47.4914 9.28018H54.8686V7.82257C54.8686 7.2213 55.4911 6.72936 56.2519 6.72936H58.0962C58.857 6.72936 59.4795 7.2213 59.4795 7.82257V9.28018H66.8568C67.6175 9.28018 68.24 9.77212 68.24 10.3734V11.831ZM0 3.08534V27.8647C0 29.0763 1.23339 30.0511 2.76649 30.0511H35.0422V0.898926H2.76649C1.23339 0.898926 0 1.8737 0 3.08534ZM6.78942 22.7722L13.4175 7.36706C13.6134 6.92067 14.1321 6.62915 14.7315 6.62915H18.4778C19.0657 6.62915 19.5959 6.92978 19.7919 7.36706L26.4199 22.7722C26.7196 23.4828 26.0626 24.2207 25.1059 24.2207H22.4662C22.1679 24.2205 21.8776 24.1441 21.6387 24.0029C21.3998 23.8617 21.2251 23.6633 21.1406 23.4372L20.057 20.5311H13.1178L12.0688 23.4281C11.8959 23.8927 11.3541 24.2207 10.7432 24.2207H8.1035C7.15828 24.2207 6.48972 23.4828 6.78942 22.7722Z" fill="black"/>
</svg>
